<?xml version="1.0" encoding="UTF-8"?>
<svg id="Layer_2" data-name="Layer 2" xmlns="http://www.w3.org/2000/svg" xmlns:xlink="http://www.w3.org/1999/xlink" viewBox="0 0 1140 840">
  <defs>
    <style>
      .cls-1 {
        clip-path: url(#clippath);
      }

      .cls-2 {
        stroke-width: 0px;
      }

      .cls-2, .cls-3, .cls-4 {
        fill: none;
      }

      .cls-3 {
        stroke: #666;
        stroke-dasharray: 0 0 10 12;
        stroke-width: 2px;
      }

      .cls-3, .cls-4 {
        stroke-linecap: round;
      }

      .cls-4 {
        stroke: #071b4d;
        stroke-linejoin: round;
        stroke-width: 7px;
      }
    </style>
    <clipPath id="clippath">
      <rect class="cls-2" width="1140" height="840"/>
    </clipPath>
  </defs>
  <g id="Layer_1-2" data-name="Layer 1">
    <g class="cls-1">
      <g>
        <line class="cls-3" x2="1140"/>
        <line class="cls-3" y1="72" x2="1140" y2="72"/>
        <line class="cls-3" x1="1" y1="178" x2="1141" y2="178"/>
        <line class="cls-3" x1="1" y1="280" x2="1141" y2="280"/>
        <line class="cls-3" y1="389" x2="1140" y2="389"/>
        <line class="cls-3" x1="1" y1="491" x2="1141" y2="491"/>
        <line class="cls-3" x1="-2" y1="595" x2="1138" y2="595"/>
        <line class="cls-3" x1="1" y1="700" x2="1141" y2="700"/>
        <line class="cls-3" y1="800" x2="1140" y2="800"/>
        <line class="cls-3" x1="1240" y1="91.24" x2="1129.58" y2="-100"/>
        <line class="cls-3" x1="1240" y1="299.09" x2="1009.58" y2="-100"/>
        <line class="cls-3" x1="1240" y1="506.94" x2="889.59" y2="-100"/>
        <line class="cls-3" x1="1240" y1="714.78" x2="769.59" y2="-100"/>
        <line class="cls-3" x1="1240" y1="922.63" x2="649.59" y2="-100"/>
        <line class="cls-3" x1="529.59" y1="-100" x2="1130.03" y2="940"/>
        <line class="cls-3" x1="409.58" y1="-100" x2="1010.03" y2="940"/>
        <line class="cls-3" x1="289.58" y1="-100" x2="890.03" y2="940"/>
        <line class="cls-3" x1="169.59" y1="-100" x2="770.03" y2="940"/>
        <line class="cls-3" x1="49.58" y1="-100" x2="650.03" y2="940"/>
        <line class="cls-3" x1="-70.42" y1="-100" x2="530.03" y2="940"/>
        <line class="cls-3" x1="-100" y1="56.6" x2="410.03" y2="940"/>
        <line class="cls-3" x1="-100" y1="264.45" x2="290.03" y2="940"/>
        <line class="cls-3" x1="-100" y1="472.3" x2="170.03" y2="940"/>
        <line class="cls-3" x1="-100" y1="680.14" x2="50.03" y2="940"/>
        <line class="cls-3" x1="-100" y1="91.24" x2="10.42" y2="-100"/>
        <line class="cls-3" x1="-100" y1="299.09" x2="130.41" y2="-100"/>
        <line class="cls-3" x1="-100" y1="506.94" x2="250.42" y2="-100"/>
        <line class="cls-3" x1="-100" y1="714.78" x2="370.42" y2="-100"/>
        <line class="cls-3" x1="-100" y1="922.63" x2="490.41" y2="-100"/>
        <line class="cls-3" x1="610.41" y1="-100" x2="9.97" y2="940"/>
        <line class="cls-3" x1="730.41" y1="-100" x2="129.97" y2="940"/>
        <line class="cls-3" x1="850.41" y1="-100" x2="249.97" y2="940"/>
        <line class="cls-3" x1="970.41" y1="-100" x2="369.97" y2="940"/>
        <line class="cls-3" x1="1090.42" y1="-100" x2="489.97" y2="940"/>
        <line class="cls-3" x1="1210.42" y1="-100" x2="609.97" y2="940"/>
        <line class="cls-3" x1="1240" y1="56.6" x2="729.97" y2="940"/>
        <line class="cls-3" x1="1240" y1="264.45" x2="849.97" y2="940"/>
        <line class="cls-3" x1="1240" y1="472.3" x2="969.97" y2="940"/>
        <line class="cls-3" x1="1240" y1="680.14" x2="1089.97" y2="940"/>
      </g>
    </g>
    <g>
      <path class="cls-4" d="m209,387.9h603"/>
      <path class="cls-4" d="m209,387.9l64.37,105.21,177.23,307.24,120.18-.32,178.42-309.03"/>
      <path class="cls-4" d="m209,598.31h603"/>
      <path class="cls-4" d="m209,598.31l64.37-105.21"/>
      <path class="cls-4" d="m812,598.31l-62.8-107.31,62.8-103.1"/>
      <path class="cls-4" d="m209,598.31L513,73l236.2,418"/>
    </g>
  </g>
</svg>